<?xml version="1.0" standalone="no"?>
<!DOCTYPE svg PUBLIC "-//W3C//DTD SVG 20010904//EN"
 "http://www.w3.org/TR/2001/REC-SVG-20010904/DTD/svg10.dtd">
<svg version="1.0" xmlns="http://www.w3.org/2000/svg"
 width="800.000000pt" height="420.000000pt" viewBox="0 0 800.000000 420.000000"
 preserveAspectRatio="xMidYMid meet">

<g transform="translate(0.000000,420.000000) scale(0.100000,-0.100000)"
fill="#000000" stroke="none">
<path d="M0 2100 l0 -2100 4000 0 4000 0 0 2100 0 2100 -4000 0 -4000 0 0
-2100z m1821 1128 l79 -83 0 -917 0 -918 -85 0 -85 0 0 1000 c0 550 3 1000 6
1000 3 0 42 -37 85 -82z m211 -305 l78 -78 0 -437 0 -438 -85 0 -86 0 1 515
c1 283 4 515 8 515 4 0 42 -35 84 -77z m-346 -1600 c-9 -9 -127 44 -188 84
-119 78 -206 203 -243 348 -19 76 -19 224 0 300 20 76 69 175 111 223 l33 37
-35 -70 c-46 -92 -64 -163 -64 -255 0 -149 47 -266 151 -374 l68 -71 1 590 0
590 83 83 82 82 3 -781 c1 -430 0 -784 -2 -786z m-206 1195 l0 -82 -72 -71
c-126 -122 -187 -257 -195 -425 -11 -229 90 -439 268 -557 55 -36 48 -39 -13
-6 -72 38 -185 153 -236 238 -163 276 -127 628 87 859 50 53 137 126 152 126
5 0 9 -37 9 -82z m3992 -781 c-365 -435 -372 -441 -430 -421 -16 5 -113 111
-239 259 l-213 250 78 3 c90 4 57 31 266 -222 l139 -169 26 30 c14 17 88 105
163 196 l138 166 67 3 c38 2 71 2 75 0 5 -2 -27 -45 -70 -95z m-2737 48 l0
-40 -291 -5 c-315 -5 -324 -7 -324 -60 0 -52 12 -55 279 -60 209 -5 252 -8
282 -23 55 -27 81 -60 86 -110 8 -69 -17 -111 -86 -144 l-56 -28 -315 0 -315
0 0 45 0 45 310 6 c171 3 311 6 312 7 18 16 33 55 28 72 -13 42 -59 50 -283
50 -268 0 -323 15 -366 98 -20 38 -20 65 -2 100 19 37 46 59 92 76 31 12 99
14 344 13 l305 -2 0 -40z m847 11 c2 -19 2 -39 0 -45 -3 -8 -82 -11 -263 -11
l-259 0 0 -165 0 -165 263 -2 262 -3 3 -42 c3 -37 0 -43 -20 -48 -13 -3 -160
-4 -328 -3 l-305 3 -3 258 -2 257 324 0 324 0 4 -34z m819 17 c66 -21 113 -67
127 -124 21 -85 -13 -158 -91 -194 l-48 -23 100 -73 c56 -40 101 -76 101 -81
0 -4 -36 -8 -79 -8 l-79 0 -100 75 -100 75 -136 0 -136 0 0 39 0 40 189 3
c174 3 192 5 218 24 59 44 51 123 -17 156 -30 16 -66 18 -257 18 l-223 0 -2
-212 -3 -213 -60 0 -60 0 -3 258 -2 257 304 0 c259 0 311 -3 357 -17z m1417
-240 l-3 -258 -60 0 -60 0 -3 258 -2 257 65 0 65 0 -2 -257z m862 236 c61 -25
94 -46 127 -81 118 -123 64 -301 -115 -379 -81 -35 -273 -48 -417 -28 -181 25
-295 124 -295 256 0 86 35 144 119 197 76 48 127 56 346 52 144 -2 210 -7 235
-17z m-3120 -229 l0 -40 -205 0 -205 0 0 40 0 40 205 0 205 0 0 -40z"/>
<path d="M6245 1726 c-159 -50 -183 -213 -42 -288 39 -21 54 -23 222 -23 178
0 181 0 226 27 49 29 74 59 85 102 18 75 -37 154 -127 180 -65 20 -304 21
-364 2z"/>
</g>
</svg>
